<svg
  class="keys"
  [class.keys--visible]="showKeyboard"
  xmlns="http://www.w3.org/2000/svg"
  xmlns:xlink="http://www.w3.org/1999/xlink"
  width="320px"
  height="220px"
  viewBox="0 0 320 220"
>
  <title>Arrow Keys</title>
  <defs>
    <path
      d="M182.7 0L117.6 0C110.1 0 103.8 6 103.8 13.5L103.8 78.6C103.8 86.1 109.8 92.4 117.6 92.4L182.7 92.4C190.2 92.4 196.5 86.4 196.5 78.6L196.5 13.5C196.5 6 190.5 0 182.7 0ZM140.4 50.4L150.3 35.7 160.2 50.4 140.4 50.4ZM182.7 104.7L117.6 104.7C110.1 104.7 104.1 110.7 104.1 118.5L104.1 183.6C104.1 191.1 110.1 197.4 117.6 197.4L182.7 197.4C190.2 197.4 196.5 191.4 196.5 183.6L196.5 118.5C196.2 111 190.2 104.7 182.7 104.7ZM150.3 160.8L140.4 146.1 160.2 146.1 150.3 160.8ZM286.5 104.7L221.1 104.7C213.6 104.7 207.3 110.7 207.3 118.5L207.3 183.6C207.3 191.1 213.3 197.4 221.1 197.4L286.2 197.4C293.7 197.4 299.7 191.4 299.7 183.6L299.7 118.5C300 111 294 104.7 286.5 104.7ZM250.2 160.8L250.2 141 264.9 150.9 250.2 160.8ZM78.9 104.7L13.8 104.7C6 104.7 0 111 0 118.5L0 183.6C0 191.1 6 197.4 13.8 197.4L78.9 197.4C86.4 197.4 92.7 191.4 92.7 183.6L92.7 118.5C92.4 111 86.4 104.7 78.9 104.7ZM50.1 160.8L35.4 150.9 50.1 141 50.1 160.8Z"
      id="path-1"
    />
    <filter
      x="-1.2%"
      y="-1.8%"
      width="103.7%"
      height="105.6%"
      filterUnits="objectBoundingBox"
      id="filter-2"
    >
      <feOffset dx="2" dy="2" in="SourceAlpha" result="shadowOffsetOuter1" />
      <feGaussianBlur
        stdDeviation="1.5"
        in="shadowOffsetOuter1"
        result="shadowBlurOuter1"
      />
      <feColorMatrix
        values="0 0 0 0 0   0 0 0 0 0   0 0 0 0 0  0 0 0 0.5 0"
        type="matrix"
        in="shadowBlurOuter1"
      />
    </filter>
  </defs>
  <g stroke="none" stroke-width="1" fill="none" fill-rule="evenodd">
    <g
      id="arrow-keys"
      transform="translate(10.000000, 11.000000)"
      fill-rule="nonzero"
    >
      <g id="Shape">
        <use
          fill="black"
          fill-opacity="1"
          filter="url(#filter-2)"
          xlink:href="#path-1"
        />
        <use fill="#FFFFFF" xlink:href="#path-1" />
      </g>
    </g>
  </g>
</svg>
