<svg xmlns="http://www.w3.org/2000/svg" xmlns:xlink="http://www.w3.org/1999/xlink" width="217" height="114" viewBox="0 0 217 114"
     version="1.1"><title>Left & Right keys</title><defs><path
  d="M183.5 0L118.1 0C110.6 0 104.3 6 104.3 13.8L104.3 78.9C104.3 86.4 110.3 92.7 118.1 92.7L183.2 92.7C190.7 92.7 196.7 86.7 196.7 78.9L196.7 13.8C197 6.3 191 0 183.5 0ZM147.2 56.1L147.2 36.3 161.9 46.2 147.2 56.1ZM78.9 0L13.8 0C6 0 0 6.3 0 13.8L0 78.9C0 86.4 6 92.7 13.8 92.7L78.9 92.7C86.4 92.7 92.7 86.7 92.7 78.9L92.7 13.8C92.4 6.3 86.4 0 78.9 0ZM50.1 56.1L35.4 46.2 50.1 36.3 50.1 56.1Z" id="path-1"/><filter x="-1.8" y="-3.8" width="105.6" height="111.9" filterUnits="objectBoundingBox" id="filter-2"><feOffset dx="2" dy="2" in="SourceAlpha" result="shadowOffsetOuter1"/><feGaussianBlur stdDeviation="1.5" in="shadowOffsetOuter1" result="shadowBlurOuter1"/><feColorMatrix values="0" type="matrix" in="shadowBlurOuter1"/></filter></defs><g id="Artboard" stroke="none" stroke-width="1" fill="none" fill-rule="evenodd"><g id="arrow-keys" transform="translate(10.000000, 9.700000)" fill-rule="nonzero"><g id="Shape"><use fill="black" fill-opacity="1" filter="url(#filter-2)" xlink:href="#path-1"/><use fill="#FFFFFF" xlink:href="#path-1"/></g></g></g></svg>
